HIERARCHY
ROOT hip
{
	OFFSET 0.000000 0.000000 0.000000
	CHANNELS 6 Xposition Yposition Zposition Zrotation Yrotation Xrotation 
	JOINT lhipjoint
	{
		OFFSET 0.000000 0.000000 0.000000
		CHANNELS 3 Zrotation Yrotation Xrotation
		JOINT lfemur
		{
			OFFSET 1.363060 -1.794630 0.839290
			CHANNELS 3 Zrotation Yrotation Xrotation
			JOINT ltibia
			{
				OFFSET 2.448110 -6.726130 0.000000
				CHANNELS 3 Zrotation Yrotation Xrotation
				JOINT lfoot
				{
					OFFSET 2.562200 -7.039590 0.000000
					CHANNELS 3 Zrotation Yrotation Xrotation
					JOINT ltoes
					{
						OFFSET 0.157640 -0.433110 2.322550
						CHANNELS 3 Zrotation Yrotation Xrotation
						End Site
						{
							OFFSET 0.000000 0.000000 0.000000
						}
					}
				}
			}
		}
	}
	JOINT rhipjoint
	{
		OFFSET 0.000000 0.000000 0.000000
		CHANNELS 3 Zrotation Yrotation Xrotation
		JOINT rfemur
		{
			OFFSET -1.305520 -1.794630 0.839290
			CHANNELS 3 Zrotation Yrotation Xrotation
			JOINT rtibia
			{
				OFFSET -2.542530 -6.985550 0.000000
				CHANNELS 3 Zrotation Yrotation Xrotation
				JOINT rfoot
				{
					OFFSET -2.568260 -7.056230 0.000000
					CHANNELS 3 Zrotation Yrotation Xrotation
					JOINT rtoes
					{
						OFFSET -0.164730 -0.452590 2.363150
						CHANNELS 3 Zrotation Yrotation Xrotation
						End Site
						{
							OFFSET 0.000000 0.000000 0.000000
						}
					}
				}
			}
		}
	}
	JOINT lowerback
	{
		OFFSET 0.000000 0.000000 0.000000
		CHANNELS 3 Zrotation Yrotation Xrotation
		JOINT upperback
		{
			OFFSET 0.028270 2.035590 -0.193380
			CHANNELS 3 Zrotation Yrotation Xrotation
			JOINT thorax
			{
				OFFSET 0.056720 2.048850 -0.042750
				CHANNELS 3 Zrotation Yrotation Xrotation
				JOINT lowerneck
				{
					OFFSET 0.000000 0.000000 0.000000
					CHANNELS 3 Zrotation Yrotation Xrotation
					JOINT upperneck
					{
						OFFSET -0.054170 1.746240 0.172020
						CHANNELS 3 Zrotation Yrotation Xrotation
						JOINT head
						{
							OFFSET 0.104070 1.761360 -0.123970
							CHANNELS 3 Zrotation Yrotation Xrotation
							End Site
							{
								OFFSET 0.000000 0.000000 0.000000
							}
						}
					}
				}
				JOINT lclavicle
				{
					OFFSET 0.000000 0.000000 0.000000
					CHANNELS 3 Zrotation Yrotation Xrotation
					JOINT lhumerus
					{
						OFFSET 3.362410 1.200890 -0.311210
						CHANNELS 3 Zrotation Yrotation Xrotation
						JOINT lradius
						{
							OFFSET 4.983000 -0.000000 -0.000000
							CHANNELS 3 Zrotation Yrotation Xrotation
							JOINT lwrist
							{
								OFFSET 3.483560 -0.000000 -0.000000
								CHANNELS 3 Zrotation Yrotation Xrotation
								JOINT lhand
								{
									OFFSET 0.000000 0.000000 0.000000
									CHANNELS 3 Zrotation Yrotation Xrotation
									JOINT lfingers
									{
										OFFSET 0.715260 -0.000000 -0.000000
										CHANNELS 3 Zrotation Yrotation Xrotation
										End Site
										{
											OFFSET 0.000000 0.000000 0.000000
										}
									}
								}
								JOINT lthumb
								{
									OFFSET 0.000000 0.000000 0.000000
									CHANNELS 3 Zrotation Yrotation Xrotation
									End Site
									{
										OFFSET 0.000000 0.000000 0.000000
									}
								}
							}
						}
					}
				}
				JOINT rclavicle
				{
					OFFSET 0.000000 0.000000 0.000000
					CHANNELS 3 Zrotation Yrotation Xrotation
					JOINT rhumerus
					{
						OFFSET -3.136600 1.374050 -0.404650
						CHANNELS 3 Zrotation Yrotation Xrotation
						JOINT rradius
						{
							OFFSET -5.241900 -0.000000 -0.000000
							CHANNELS 3 Zrotation Yrotation Xrotation
							JOINT rwrist
							{
								OFFSET -3.444170 -0.000000 -0.000000
								CHANNELS 3 Zrotation Yrotation Xrotation
								JOINT rhand
								{
									OFFSET 0.000000 0.000000 0.000000
									CHANNELS 3 Zrotation Yrotation Xrotation
									JOINT rfingers
									{
										OFFSET -0.622530 -0.000000 -0.000000
										CHANNELS 3 Zrotation Yrotation Xrotation
										End Site
										{
											OFFSET 0.000000 0.000000 0.000000
										}
									}
								}
								JOINT rthumb
								{
									OFFSET 0.000000 0.000000 0.000000
									CHANNELS 3 Zrotation Yrotation Xrotation
									End Site
									{
										OFFSET 0.000000 0.000000 0.000000
									}
								}
							}
						}
					}
				}
			}
		}
	}
}
MOTION
Frames: 10
Frame Time: 0.008333
4.655578 16.962628 -0.421660 -176.576224 -0.023160 179.070873 -2.025841 2.948433 2.023005 -5.479196 18.197589 -13.289381 6.756817 14.207211 46.184384 4.238361 -13.670789 -20.800172 2.725000 -10.236000 -29.744500 -0.211238 -2.910101 0.734605 12.940074 15.003687 -41.445722 -4.075229 -12.000989 37.353721 -0.112580 -3.102844 13.594660 -1.757000 8.340400 -23.752900 -1.443334 -1.853441 5.895136 1.711272 -2.108060 -3.305618 5.074009 -0.572235 1.435282 -0.661863 -6.010816 18.080337 -7.225674 -5.176448 0.944649 0.041900 -1.601100 -6.029200 -0.244075 4.065627 1.040464 -62.152861 -35.044799 64.374631 128.663441 -51.256304 -86.581840 1.487932 1.522023 -10.892645 26.308874 -20.244129 -9.707300 -7.125000 0.000000 0.000000 -2.662100 6.083800 2.367600 2.102337 0.102393 2.922938 70.935981 14.810906 71.604976 -132.124443 44.250415 -89.643521 0.713736 -2.836663 14.455303 -29.605905 3.104026 -3.611000 7.125000 0.000000 0.000000 -3.195000 -22.971800 -1.697200 
4.631492 16.972672 -0.339050 -176.679435 1.704342 179.367561 -2.065962 2.964485 1.998740 -5.959421 19.203647 -14.053201 6.854801 14.286088 46.582199 4.180426 -13.111428 -20.941804 2.708200 -10.207000 -29.649600 -0.236837 -2.910494 0.749005 14.007963 14.241834 -42.130237 -4.173652 -12.135559 37.756506 0.023465 -3.686487 12.974088 -1.769900 8.369300 -23.841500 -1.575189 -1.744017 5.815845 1.690093 -1.984793 -3.319591 5.079897 -0.520976 1.410725 -0.641781 -5.967522 17.955214 -7.083078 -5.127346 0.900520 0.091100 -1.592900 -6.021700 -0.268292 4.046032 1.034698 -61.772547 -35.003325 64.009336 129.060040 -51.099590 -87.014895 1.501584 1.482323 -10.681690 26.248667 -20.333510 -9.700000 -7.125000 0.000000 0.000000 -2.707000 6.042500 2.409700 2.104785 0.104715 2.915871 70.922526 14.920864 72.024564 -132.182416 44.181567 -89.707461 0.718114 -2.832444 14.188897 -30.167534 3.234271 -3.779600 7.125000 0.000000 0.000000 -3.589700 -22.760500 -1.925000 
4.607918 16.981896 -0.259002 -176.790308 3.410035 179.669140 -2.105042 2.976051 1.973876 -6.479165 20.107597 -14.826531 6.953897 14.367258 46.987383 4.119802 -12.479346 -21.163402 2.710500 -10.211000 -29.662700 -0.261625 -2.910054 0.761456 15.032321 13.521179 -42.789035 -4.282481 -12.280818 38.211733 0.152313 -4.182752 12.260880 -1.797500 8.430900 -24.030700 -1.722963 -1.649514 5.696615 1.666914 -1.880635 -3.328997 5.078159 -0.480615 1.427480 -0.642252 -5.956055 17.824383 -6.922874 -5.119237 0.856990 0.160200 -1.604600 -6.015000 -0.294171 4.036093 1.029355 -61.407994 -34.970989 63.642564 129.451339 -50.948535 -87.436211 1.518284 1.440985 -10.362709 26.172404 -20.413614 -9.681800 -7.125000 0.000000 0.000000 -2.761500 6.012900 2.460000 2.106844 0.101102 2.910753 70.887016 15.090687 72.377280 -132.220963 44.129146 -89.751046 0.722704 -2.828025 13.867615 -30.609966 3.366514 -3.934500 7.125000 0.000000 0.000000 -3.893500 -22.555800 -2.106900 
4.586599 16.988968 -0.181312 -176.887718 5.106733 179.941185 -2.140785 2.987409 1.953010 -6.984288 20.942796 -15.562496 7.055989 14.451288 47.403651 4.058950 -11.832924 -21.427451 2.727800 -10.240800 -29.760100 -0.282282 -2.913004 0.776132 16.019371 12.884718 -43.376993 -4.404827 -12.433446 38.718721 0.281962 -4.650648 11.479984 -1.779500 8.390900 -23.907700 -1.845129 -1.553843 5.611049 1.633403 -1.778630 -3.346763 5.004114 -0.439029 1.375813 -0.618824 -5.988638 17.818486 -6.732962 -5.147312 0.796940 0.247300 -1.633100 -6.039700 -0.322924 4.022233 1.023066 -60.989015 -34.874642 63.291744 129.898890 -50.778797 -87.909137 1.530036 1.394056 -9.992848 26.053148 -20.405380 -9.608300 -7.125000 0.000000 0.000000 -2.828600 6.092000 2.515500 2.098171 0.111962 2.909382 70.924569 15.223054 72.686918 -132.201764 44.100732 -89.724486 0.726960 -2.830938 13.621747 -30.940141 3.459239 -4.053600 7.125000 0.000000 0.000000 -4.121000 -22.399900 -2.245300 
4.568458 16.993478 -0.108336 -176.984459 6.757497 -179.811264 -2.173766 2.994520 1.933215 -7.488941 21.660781 -16.255303 7.158023 14.536448 47.826134 3.988369 -11.097464 -21.754769 2.739200 -10.260500 -29.824400 -0.300000 -2.916577 0.788146 16.935534 12.348275 -43.887451 -4.540524 -12.591271 39.269286 0.424045 -5.130294 10.543886 -1.796600 8.428800 -24.024400 -1.964946 -1.460088 5.506717 1.594187 -1.676540 -3.357550 4.899580 -0.397662 1.367230 -0.579808 -6.057051 17.757579 -6.518529 -5.216720 0.756723 0.350000 -1.685900 -6.047400 -0.351473 4.015920 1.016421 -60.617291 -34.843303 63.027802 130.283467 -50.633805 -88.308248 1.538653 1.353516 -9.570633 25.972305 -20.338639 -9.533100 -7.125000 0.000000 0.000000 -2.864600 6.216000 2.540900 2.086099 0.114551 2.908636 70.961612 15.408322 72.858301 -132.171541 44.086121 -89.687420 0.729263 -2.835716 13.401754 -31.126535 3.559596 -4.155100 7.125000 0.000000 0.000000 -4.242200 -22.248800 -2.326300 
4.552776 16.994196 -0.039358 -177.094149 8.345478 -179.572978 -2.205577 2.997367 1.915418 -8.013977 22.267345 -16.924086 7.262391 14.622489 48.255269 3.921778 -10.356285 -22.152165 2.764000 -10.302900 -29.963300 -0.317106 -2.918720 0.798152 17.745135 11.888931 -44.366395 -4.686730 -12.754120 39.848287 0.580653 -5.673499 9.543203 -1.727900 8.274800 -23.551800 -2.108432 -1.403827 5.376512 1.557091 -1.623687 -3.367791 4.790378 -0.382237 1.379826 -0.501798 -6.147076 17.726314 -6.326627 -5.302345 0.695065 0.435700 -1.743300 -6.073800 -0.375902 4.017181 1.011223 -60.275223 -34.851933 62.733798 130.628669 -50.509510 -88.662813 1.542019 1.316921 -9.169087 25.830395 -20.197804 -9.403800 -7.125000 0.000000 0.000000 -2.929100 6.427400 2.586300 2.075004 0.116454 2.909026 71.008790 15.607334 73.047262 -132.120371 44.087269 -89.617409 0.729283 -2.843207 13.264317 -31.222504 3.650213 -4.236200 7.125000 0.000000 0.000000 -4.299700 -22.117400 -2.371000 
4.539042 16.993991 0.027776 -177.195391 9.913897 -179.365422 -2.239975 2.998476 1.903449 -8.520165 22.791747 -17.547978 7.362888 14.706661 48.680431 3.836696 -9.524012 -22.567889 2.803700 -10.370200 -30.184200 -0.337106 -2.921561 0.808243 18.518973 11.485198 -44.795875 -4.839395 -12.916191 40.446800 0.736723 -6.208798 8.505409 -1.711800 8.238100 -23.439600 -2.274777 -1.369279 5.291596 1.533693 -1.598912 -3.386255 4.752736 -0.378883 1.341509 -0.458742 -6.238245 17.736848 -6.154161 -5.399459 0.640720 0.517800 -1.802900 -6.102200 -0.396518 4.010219 1.004526 -59.989355 -34.792358 62.438553 130.959102 -50.385489 -89.003242 1.546540 1.281583 -8.785024 25.670736 -20.083621 -9.277900 -7.125000 0.000000 0.000000 -3.009600 6.612500 2.646700 2.071103 0.124250 2.907931 70.993664 15.750209 73.223992 -132.113020 44.081221 -89.597613 0.728236 -2.843294 13.245008 -31.216340 3.688438 -4.259300 7.125000 0.000000 0.000000 -4.290300 -22.072700 -2.370100 
4.524795 16.991736 0.094602 -177.290865 11.498881 -179.167601 -2.273369 2.997792 1.892508 -9.029690 23.297629 -18.174025 7.460819 14.789465 49.103104 3.736769 -8.638794 -22.987635 2.864200 -10.472000 -30.519100 -0.356305 -2.925357 0.818229 19.213744 11.205111 -45.195929 -4.997041 -13.076881 41.063246 0.875496 -6.680062 7.537542 -1.630300 8.049300 -22.863800 -2.414277 -1.340874 5.229260 1.505505 -1.581917 -3.405971 4.665790 -0.377959 1.292936 -0.348168 -6.328437 17.706483 -6.014797 -5.484992 0.610599 0.569200 -1.858800 -6.112500 -0.417953 3.998106 0.995714 -59.667902 -34.719996 62.125828 131.312181 -50.253453 -89.366421 1.545463 1.246111 -8.452557 25.494689 -19.912810 -9.123900 -7.125000 0.000000 0.000000 -3.091900 6.862700 2.704400 2.064439 0.133134 2.904503 71.011075 15.891993 73.406787 -132.117463 44.069331 -89.580947 0.723942 -2.845647 13.310909 -31.167410 3.765104 -4.299300 7.125000 0.000000 0.000000 -4.247300 -21.987200 -2.354500 
4.511061 16.986304 0.159275 -177.391692 13.105108 -178.997948 -2.308769 2.997744 1.884576 -9.540339 23.781544 -18.759247 7.554655 14.867389 49.513349 3.626775 -7.701810 -23.448047 2.946400 -10.607700 -30.967900 -0.376272 -2.929767 0.828394 19.865159 10.984913 -45.557081 -5.161915 -13.238989 41.705379 1.004589 -7.117343 6.591456 -1.597800 7.972600 -22.630900 -2.564010 -1.317243 5.197060 1.480165 -1.571465 -3.429679 4.603183 -0.379049 1.207586 -0.294629 -6.427366 17.738954 -5.873831 -5.588837 0.551557 0.635800 -1.918500 -6.145700 -0.437732 3.985803 0.987317 -59.446835 -34.572003 61.840185 131.687559 -50.110652 -89.749324 1.543996 1.212312 -8.175192 25.294544 -19.779819 -8.975800 -7.125000 0.000000 0.000000 -3.194800 7.075900 2.781400 2.059324 0.149494 2.903278 70.974217 15.989087 73.613413 -132.144169 44.048440 -89.589928 0.717805 -2.844076 13.386952 -31.161144 3.868737 -4.360900 7.125000 0.000000 0.000000 -4.231400 -21.870200 -2.356900 
4.497737 16.978309 0.220977 -177.516166 14.697897 -178.870126 -2.345720 2.996270 1.877293 -10.064839 24.211421 -19.284975 7.646713 14.940752 49.915620 3.516408 -6.774681 -23.935299 3.004100 -10.701700 -31.280400 -0.396169 -2.933142 0.836199 20.419980 10.832638 -45.868270 -5.335430 -13.406359 42.386270 1.108726 -7.452356 5.697534 -1.531200 7.812400 -22.145700 -2.721089 -1.291362 5.194928 1.454053 -1.554792 -3.447530 4.551910 -0.376670 1.139153 -0.304038 -6.542576 17.710626 -5.725026 -5.732010 0.517161 0.724700 -1.997800 -6.153700 -0.458226 3.976275 0.978595 -59.319730 -34.417527 61.592476 132.055422 -49.970381 -90.119898 1.543438 1.181062 -7.976311 25.055613 -19.705678 -8.835100 -7.125000 0.000000 0.000000 -3.330600 7.232200 2.889800 2.052715 0.157652 2.901523 70.914287 16.152002 73.793889 -132.098481 44.055617 -89.525290 0.711259 -2.846295 13.548059 -31.203507 3.899433 -4.388100 7.125000 0.000000 0.000000 -4.260200 -21.829400 -2.377000 
